<?xml version="1.0" standalone="no"?>
<!DOCTYPE svg PUBLIC "-//W3C//DTD SVG 1.1//EN" "http://www.w3.org/Graphics/SVG/1.1/DTD/svg11.dtd" >
<svg xmlns="http://www.w3.org/2000/svg">
<metadata></metadata>
<defs>
<font id="rockwell_extra_boldregular" horiz-adv-x="1536" >
<font-face units-per-em="2048" ascent="1638" descent="-410" />
<missing-glyph horiz-adv-x="512" />
<glyph horiz-adv-x="2048" />
<glyph horiz-adv-x="2048" />
<glyph unicode="&#xd;" horiz-adv-x="2048" />
<glyph unicode=" "  horiz-adv-x="512" />
<glyph unicode="&#x09;" horiz-adv-x="512" />
<glyph unicode="&#xa0;" horiz-adv-x="512" />
<glyph unicode="!" horiz-adv-x="811" d="M156 0v364h499v-364h-499zM164 992v399h483v-391l-72 -441h-341z" />
<glyph unicode="&#x22;" horiz-adv-x="1024" d="M86 1229q0 75 51 130t130 55q86 0 134 -56q47 -58 47 -137q0 -36 -15 -86l-141 -444h-50l-141 444q-15 48 -15 94zM577 1229q0 73 50 129t131 56q86 0 134 -56q47 -58 47 -137q0 -36 -15 -86l-141 -444h-50l-141 444q-15 48 -15 94z" />
<glyph unicode="#" horiz-adv-x="1368" d="M74 349v216h201l57 275h-258v216h304l78 373h216l-79 -373h329l79 373h215l-78 -373h156v-216h-201l-58 -275h259v-216h-304l-78 -372h-216l78 372h-329l-78 -372h-216l78 372h-155zM490 565h329l58 275h-329z" />
<glyph unicode="$" horiz-adv-x="1280" d="M62 368q0 11 3 39h327q-5 -180 184 -225v357q-279 77 -383 185q-106 109 -106 255q0 179 131 289t358 123v54h133v-53q229 -12 359 -115t130 -258q0 -19 -1 -33h-312q0 89 -47 134q-47 46 -129 62v-315q313 -92 413 -208q101 -119 101 -266q0 -163 -128 -285 q-126 -120 -386 -128v-151h-133v156q-289 30 -401 145q-113 115 -113 238zM359 1058q0 -40 36 -75q38 -36 181 -76v287q-217 -10 -217 -136zM709 169q211 9 211 155q0 120 -211 177v-332z" />
<glyph unicode="%" horiz-adv-x="1985" d="M49 1035q0 174 105 279q104 105 260 105q158 0 261 -105q104 -107 104 -279t-104 -278q-103 -106 -261 -106q-149 0 -257 102q-108 101 -108 282zM341 1036q0 -121 18 -159t56 -38q41 0 57 43q16 42 16 153q0 119 -18 158q-18 38 -56 38t-55 -38q-18 -37 -18 -157z M415 -22l937 1441h218l-937 -1441h-218zM1205 374q0 180 108 282q107 102 257 102q157 0 262 -105q104 -106 104 -279q0 -172 -104 -278q-105 -105 -261 -105q-149 0 -258 101q-108 101 -108 282zM1497 375q0 -121 18 -159t56 -38q41 0 58 44q15 44 15 152q0 120 -18 159 q-18 38 -55 38q-39 0 -56 -38q-18 -39 -18 -158z" />
<glyph unicode="&#x26;" horiz-adv-x="1792" d="M69 392q0 165 122 293q123 129 310 178q-60 110 -60 221q0 147 114 241q112 94 367 94q93 0 216 -10v-289q-11 1 -24 1q-133 0 -133 -95q0 -44 77 -139l144 -181q96 137 165 306h349v-359h-159q-55 -105 -147 -201l94 -119h212v-333h-587l-85 106q-188 -128 -462 -128 q-260 0 -387 116q-126 116 -126 298zM505 443q0 -81 56 -145q55 -64 140 -64q92 0 181 80l-249 317q-128 -56 -128 -188z" />
<glyph unicode="'" horiz-adv-x="569" d="M103 1229q0 75 51 130t130 55q86 0 134 -56q47 -58 47 -137q0 -36 -15 -86l-141 -444h-50l-141 444q-15 48 -15 94z" />
<glyph unicode="(" horiz-adv-x="938" d="M101 496q0 242 79 412q80 173 257 311t421 200v-262q-100 -26 -173 -162q-75 -136 -75 -474q0 -326 57 -475q57 -148 191 -213v-261q-150 33 -281 105t-247 187q-229 226 -229 632z" />
<glyph unicode=")" horiz-adv-x="938" d="M81 -167q98 27 173 164t75 473q0 327 -57 475q-56 147 -191 212v262q299 -64 529 -291q228 -226 228 -634q0 -242 -81 -415t-261 -311q-181 -139 -415 -196v261z" />
<glyph unicode="*" horiz-adv-x="1280" d="M70 865l93 297l170 -56q85 -112 263 -204q-28 179 -117 310v179h324v-179q-96 -136 -117 -310q207 115 259 204l171 52l95 -293l-168 -56q-94 24 -173 24q-96 0 -153 -18q144 -147 276 -184l103 -141l-252 -185l-103 141q0 155 -97 315q-88 -160 -93 -315l-107 -141 l-254 185l104 141q58 18 148 79q86 58 127 105q-95 16 -143 16q-114 0 -185 -25z" />
<glyph unicode="+" horiz-adv-x="1368" d="M122 578v249h438v438h248v-438h438v-249h-438v-437h-248v437h-438z" />
<glyph unicode="," horiz-adv-x="811" d="M156 0v364h499v-311q0 -168 -12 -229q-12 -63 -70 -122q-57 -60 -141 -83q-81 -22 -276 -22v195q80 0 122 24q42 25 52 57q11 33 12 127h-186z" />
<glyph unicode="-" horiz-adv-x="918" d="M102 269v431h714v-431h-714z" />
<glyph unicode="." horiz-adv-x="811" d="M156 0v364h499v-364h-499z" />
<glyph unicode="/" horiz-adv-x="575" d="M0 -22l339 1441h235l-342 -1441h-232z" />
<glyph unicode="0" horiz-adv-x="1409" d="M106 703q0 341 177 528q177 188 421 188q254 0 427 -194q172 -194 172 -522q0 -345 -178 -530q-178 -186 -421 -186q-253 0 -426 194q-172 193 -172 522zM559 703q0 -261 39 -341q39 -81 108 -81q70 0 107 85q37 83 37 337q0 264 -39 343q-40 78 -107 78q-66 0 -105 -78 q-40 -79 -40 -343z" />
<glyph unicode="1" horiz-adv-x="1409" d="M311 0v320h198v629q-54 -14 -148 -14q-30 0 -50 3v308q12 -1 25 -1q131 0 243 51q114 52 163 123h209v-1099h192v-320h-832z" />
<glyph unicode="2" horiz-adv-x="1409" d="M129 43q0 194 84 348q43 79 119 157t185 157q184 136 237 196q53 62 53 125q0 61 -36 100t-108 39q-154 0 -154 -195l-358 11q11 239 159 339q149 99 376 99q248 0 402 -114q154 -115 154 -300q0 -119 -78 -220q-80 -101 -305 -216q-182 -92 -244 -139q-63 -49 -96 -111 h438l5 116h288l-12 -435h-1107q-2 42 -2 43z" />
<glyph unicode="3" horiz-adv-x="1409" d="M92 472l360 27q9 -222 207 -222q86 0 128 47q41 47 41 114q0 170 -227 178v226q70 0 132 41q61 40 61 119q0 64 -40 103q-41 38 -108 38q-143 0 -154 -158l-376 20q12 208 162 311q149 103 407 103q275 0 412 -112q137 -113 137 -278q0 -99 -58 -176q-58 -78 -157 -108 q125 -27 195 -115t70 -213q0 -200 -166 -315t-437 -115q-273 0 -428 119q-153 118 -161 366z" />
<glyph unicode="4" horiz-adv-x="1409" d="M65 748l650 671h430v-714h143v-247h-143v-176h143v-282h-727v282h168v176h-586zM353 705h376v380z" />
<glyph unicode="5" horiz-adv-x="1409" d="M82 374l362 23q48 -114 185 -114q81 0 137 44q54 44 54 138q0 92 -54 135q-55 42 -128 42q-112 0 -188 -82l-303 107l42 724h1025v-364h-235l-33 85h-497l-12 -276q134 84 319 84q226 0 374 -121t148 -332q0 -206 -156 -343q-157 -137 -437 -137q-246 0 -407 104 q-160 103 -196 283z" />
<glyph unicode="6" horiz-adv-x="1409" d="M121 717q0 315 164 509q163 193 484 193q209 0 345 -88q135 -88 173 -258l-347 -31q-50 113 -169 113q-198 0 -209 -323q121 85 288 85q186 0 318 -123q131 -125 131 -319q0 -221 -160 -354q-161 -134 -385 -134q-275 0 -453 187q-180 186 -180 543zM556 581 q0 -316 184 -316q144 0 144 183q0 87 -41 140q-40 52 -113 52q-85 0 -174 -59z" />
<glyph unicode="7" horiz-adv-x="1409" d="M127 917v474h1113v-266q-304 -501 -353 -807h181v-318h-803v318h180q144 429 453 792h-495v-193h-276z" />
<glyph unicode="8" horiz-adv-x="1409" d="M99 401q0 237 253 331q-90 32 -152 106q-63 75 -63 182q0 178 147 289q148 110 413 110q276 0 424 -108q149 -108 149 -280q0 -210 -213 -299q109 -27 182 -112q72 -85 72 -214q0 -191 -149 -305q-148 -114 -464 -114q-308 0 -453 118q-146 117 -146 296zM519 429 q0 -85 53 -132t136 -47q86 0 135 49q48 50 48 132t-48 130q-49 48 -133 48q-90 0 -140 -54q-51 -54 -51 -126zM542 1004q0 -65 42 -107q40 -43 123 -43q66 0 112 37q46 36 46 115q0 68 -42 111q-43 42 -115 42t-118 -43q-48 -43 -48 -112z" />
<glyph unicode="9" horiz-adv-x="1409" d="M111 930q0 228 164 359q163 130 382 130q273 0 453 -186q179 -188 179 -545q0 -314 -164 -508q-163 -193 -484 -193q-204 0 -341 86q-138 86 -177 259l348 31q48 -113 168 -113q199 0 209 324q-122 -86 -288 -86q-187 0 -317 124q-132 125 -132 318zM526 958 q0 -93 43 -142q42 -51 111 -51q87 0 175 60q0 315 -185 315q-144 0 -144 -182z" />
<glyph unicode=":" horiz-adv-x="811" d="M156 0v364h499v-364h-499zM156 606v364h499v-364h-499z" />
<glyph unicode=";" horiz-adv-x="811" d="M156 0v364h499v-311q0 -168 -12 -229q-12 -63 -70 -122q-57 -60 -141 -83q-81 -22 -276 -22v195q80 0 122 24q42 25 52 57q11 33 12 127h-186zM156 606v364h499v-364h-499z" />
<glyph unicode="&#x3c;" horiz-adv-x="1368" d="M122 591v224l1124 466v-265l-778 -313l778 -314v-265z" />
<glyph unicode="=" horiz-adv-x="1368" d="M122 337v249h1124v-249h-1124zM122 820v248h1124v-248h-1124z" />
<glyph unicode="&#x3e;" horiz-adv-x="1368" d="M122 124v265l778 314l-778 313v265l1124 -466v-224z" />
<glyph unicode="?" horiz-adv-x="1300" d="M52 1020q10 199 176 300q165 99 419 99q304 0 453 -115q149 -116 149 -285q0 -185 -141 -287q-142 -102 -343 -102l-20 -89h-262l-26 312q51 -19 118 -19q106 0 159 53t53 128t-46 122q-46 48 -124 48q-64 0 -113 -37q-50 -38 -50 -128h-402zM364 0v364h499v-364h-499z " />
<glyph unicode="@" horiz-adv-x="1516" d="M2 529q0 124 23.5 236t71.5 211t119 185q215 258 595 258q335 0 522 -208q186 -208 186 -511q0 -301 -169 -480q-169 -180 -345 -180q-128 0 -157 116q-66 -65 -117 -91q-50 -26 -119 -26q-149 0 -239 116t-90 310q0 249 126 444q125 195 305 195q144 0 231 -144l16 113 h198l-127 -791q-4 -23 -4 -35q0 -39 37 -39q60 0 133 60q74 59 123 174q50 117 50 258q0 256 -153 413t-403 157q-197 0 -357 -100q-161 -101 -234 -271q-74 -172 -74 -361q0 -321 183 -509q183 -189 468 -189q273 0 505 187h210q-65 -83 -145 -145t-177 -106 q-192 -85 -392 -85q-241 0 -417 110q-177 110 -280 290q-103 181 -103 438zM491 433q0 -121 41 -185q40 -64 111 -64q127 0 185 204q58 201 58 359q0 90 -38 146q-37 55 -103 55q-124 0 -189 -177q-65 -180 -65 -338z" />
<glyph unicode="A" horiz-adv-x="1556" d="M23 0v333h106l261 725h-112v333h1000v-333h-112l266 -725h102v-333h-726v305h122l-53 175h-356l-61 -175h114v-305h-551zM574 653h249l-118 385z" />
<glyph unicode="B" horiz-adv-x="1749" d="M90 0v333h121v725h-121v333h850q250 0 387 -29q135 -30 212 -119q77 -91 77 -212q0 -118 -73 -188q-75 -72 -182 -100q147 -44 226 -136q80 -94 80 -211q0 -140 -90 -238q-90 -97 -247 -127q-155 -31 -453 -31h-787zM749 305h121q116 0 167 30q50 30 50 106q0 71 -45 105 q-45 33 -174 33h-119v-274zM749 832h119q121 0 159 35q36 35 36 92q0 49 -33 88t-181 39h-100v-254z" />
<glyph unicode="C" horiz-adv-x="1642" d="M100 695q0 302 189 513t491 211q245 0 399 -121v93h334v-508h-347q-27 95 -91 150q-64 54 -146 54q-226 0 -226 -389q0 -390 234 -390q205 0 258 305l361 -127q-46 -223 -211 -365q-167 -143 -460 -143q-400 0 -592 209q-193 208 -193 508z" />
<glyph unicode="D" horiz-adv-x="1792" d="M105 0v333h109v725h-109v333h666q228 0 372 -28q145 -28 273 -115q127 -88 200 -238q36 -72 55 -154t19 -172q0 -181 -77 -330q-76 -148 -193 -227q-114 -79 -250 -103q-135 -24 -418 -24h-647zM752 333h51q190 0 247 101q56 101 56 254q0 92 -24 182q-25 90 -88 139 q-62 49 -222 49h-20v-725z" />
<glyph unicode="E" d="M91 1058v333h1329v-445h-365v112h-316v-214h275v-283h-275v-228h316v112h365v-445h-1327v333h108v725h-110z" />
<glyph unicode="F" horiz-adv-x="1450" d="M49 1058v333h1370v-458h-370v125h-311v-214h240v-283h-240v-228h161v-333h-845v333h146v725h-151z" />
<glyph unicode="G" horiz-adv-x="1729" d="M100 696q0 325 214 524q212 199 520 199q257 0 403 -125v97h335v-486h-335q-44 90 -114.5 136t-164.5 46q-132 0 -194 -86q-61 -86 -61 -316q0 -229 64 -311q65 -83 189 -83q188 0 188 188h-142v264h622q0 -228 -32 -339q-31 -107 -130 -217q-97 -109 -235 -159t-296 -50 q-235 0 -427 78q-193 76 -298 252q-106 173 -106 388z" />
<glyph unicode="H" horiz-adv-x="1792" d="M90 1058v333h734v-333h-89v-212h322v212h-90v333h733v-333h-105v-725h105v-333h-733v333h90v228h-322v-228h89v-333h-732v333h105v725h-107z" />
<glyph unicode="I" horiz-adv-x="938" d="M72 0v333h128v725h-128v333h793v-333h-127v-725h127v-333h-793z" />
<glyph unicode="J" horiz-adv-x="918" d="M41 -70q32 -8 59 -8q64 0 82 44q17 45 17 215v877h-128v333h785v-333h-119v-815q0 -227 -12 -320q-12 -94 -69 -179q-59 -86 -152 -129t-258 -43q-95 0 -205 17v341z" />
<glyph unicode="K" horiz-adv-x="1749" d="M91 1058v333h757v-333h-110v-725h110v-333h-754v333h106v725h-109zM755 729l354 329h-113v333h685v-333h-108l-284 -264l355 -461h69v-333h-720v333h67z" />
<glyph unicode="L" horiz-adv-x="1430" d="M73 0v333h125v725h-125v333h795v-333h-132v-725h329v223h332v-556h-1324z" />
<glyph unicode="M" horiz-adv-x="2261" d="M86 1058v333h839l205 -537l210 537h834v-333h-109v-725h112v-333h-726v333h111v777l-420 -1110h-208l-416 1100v-767h110v-333h-539v333h107v725h-110z" />
<glyph unicode="N" horiz-adv-x="1749" d="M67 0v333h122v725h-122v333h659l506 -727v394h-113v333h561v-333h-121v-1076h-458l-586 841v-490h123v-333h-571z" />
<glyph unicode="O" horiz-adv-x="1772" d="M102 699q0 174 85 337q84 162 261 273q63 39 129.5 62t144.5 35.5t164 12.5q374 0 579 -219q102 -108 154 -234t52 -267q0 -291 -212 -506t-573 -215q-349 0 -566 202q-218 201 -218 519zM706 699q0 -232 45 -313q43 -82 135 -82q91 0 136 79q45 80 45 316q0 229 -44 312 q-43 82 -137 82q-90 0 -135 -79t-45 -315z" />
<glyph unicode="P" horiz-adv-x="1686" d="M90 0v333h135v725h-135v333h853q294 0 430 -57q136 -58 200 -158t64 -219q0 -147 -76 -244q-76 -98 -201 -142q-123 -43 -380 -43h-217v-195h140v-333h-813zM763 825h105q110 0 160 26q48 26 48 101q0 49 -26 83q-25 33 -67 42q-40 9 -136 9h-84v-261z" />
<glyph unicode="Q" horiz-adv-x="1772" d="M102 685q0 309 214 522q214 212 570 212q362 0 573 -214q212 -215 212 -506q0 -299 -216 -509q-215 -211 -546 -211q78 -15 157 -38q176 -51 292 -51q39 0 92 8l-116 -324q-38 -2 -43 -2q-106 0 -283 82q-120 55 -186 76q-63 19 -140 19q-113 0 -188 -51l-147 192 q116 104 316 110q-226 50 -393 234q-168 183 -168 451zM706 699q0 -232 45 -313q43 -82 135 -82q91 0 136 79q45 80 45 316q0 229 -44 312q-43 82 -137 82q-90 0 -135 -79t-45 -315z" />
<glyph unicode="R" horiz-adv-x="1749" d="M90 0v333h113v725h-113v333h756q102 0 189 -3.5t149 -10t114 -17.5q146 -31 237 -135q92 -106 92 -250q0 -108 -56 -196q-56 -87 -147 -128l192 -318h100v-333h-501l-303 568h-171v-235h105v-333h-756zM741 821h60q118 0 160 7q45 7 76 40q31 31 31 85t-31 86 q-31 33 -79 40q-46 7 -168 7h-49v-265z" />
<glyph unicode="S" horiz-adv-x="1280" d="M82 997q0 194 126 303q125 109 308 109t310 -104v86h315v-396h-311q-57 164 -202 164q-102 0 -102 -87q0 -42 29 -63q28 -22 181 -97q205 -102 274 -149q35 -23 71.5 -64.5t60.5 -85.5q55 -98 55 -212q0 -175 -130 -296q-130 -123 -328 -123q-184 0 -333 109v-91h-313 v446h313q56 -182 211 -182q112 0 112 90q0 47 -39 78q-42 34 -177 94q-170 77 -250 133q-75 51 -128 141q-53 89 -53 197z" />
<glyph unicode="T" d="M78 805v586h1379v-586h-261v253h-159v-725h123v-333h-781v333h120v725h-160v-253h-261z" />
<glyph unicode="U" horiz-adv-x="1493" d="M60 1058v333h712v-333h-66v-469q0 -168 32 -229q32 -60 115 -60q69 0 100 51q31 50 31 205v502h-70v333h523v-333h-110v-504q0 -193 -56 -316q-56 -122 -186 -191t-320 -69q-153 0 -271 37q-120 36 -190 110q-70 73 -103 177q-34 101 -34 310v446h-107z" />
<glyph unicode="V" d="M18 1058v333h748v-333h-118l207 -593l217 593h-114v333h561v-333h-103l-418 -1070h-433l-444 1070h-103z" />
<glyph unicode="W" horiz-adv-x="2261" d="M17 1058v333h721v-333h-104l164 -599l208 599h-103v333h606v-333h-103l211 -599l166 599h-100v333h561v-333h-96l-396 -1070h-432l-188 536l-189 -536h-438l-392 1070h-96z" />
<glyph unicode="X" horiz-adv-x="2048" d="M53 0v333h156l456 356l-456 369h-148v333h926v-293h-139l234 -204l207 204h-120v293h772v-333h-208l-375 -314l497 -411h139v-333h-936v293h146l-257 232l-236 -232h148v-293h-806z" />
<glyph unicode="Y" horiz-adv-x="1493" d="M36 1058v333h727v-333h-83l148 -284l179 284h-85v333h535v-333h-87l-350 -504v-221h110v-333h-760v333h112v221l-351 504h-95z" />
<glyph unicode="Z" horiz-adv-x="1493" d="M59 0v318l685 768h-348v-172h-319v477h1350v-282l-720 -804h401v190h324v-495h-1373z" />
<glyph unicode="[" horiz-adv-x="1024" d="M158 -410v1801h783v-385h-289v-1031h284v-385h-778z" />
<glyph unicode="\" horiz-adv-x="575" d="M0 1419h235l339 -1441h-231z" />
<glyph unicode="]" horiz-adv-x="1024" d="M83 -25h290v1031h-285v385h778v-1801h-783v385z" />
<glyph unicode="^" horiz-adv-x="1352" d="M192 692l376 799h223l366 -799h-284l-198 489l-197 -489h-286z" />
<glyph unicode="_" horiz-adv-x="1024" d="M-12 -154h1048v-102h-1048v102z" />
<glyph unicode="`" horiz-adv-x="682" d="M-96 1434h463l189 -363h-238z" />
<glyph unicode="a" d="M81 739q65 143 210 201q143 58 422 58q103 0 184.5 -6.5t145.5 -19.5q133 -25 197 -77q64 -53 89 -114q26 -63 26 -196v-280h124v-305h-627v66q-130 -84 -348 -84q-205 0 -309 90q-105 90 -105 213q0 136 129 223q128 87 334 87q188 0 299 -49v29q0 90 -13 126 q-14 38 -62 65q-50 26 -116 26q-121 0 -186 -93zM566 331q0 -59 40 -96q41 -38 94 -38q94 0 152 51v177q-67 36 -142 36q-66 0 -105 -36q-39 -37 -39 -94z" />
<glyph unicode="b" horiz-adv-x="1622" d="M52 1086v305h632v-483q128 80 311 80q231 0 382 -132t151 -359q0 -112 -36.5 -203t-109.5 -164q-145 -148 -364 -148q-194 0 -334 83v-65h-630v305h127v781h-129zM680 489q0 -219 174 -219q165 0 165 218q0 104 -46 159q-46 54 -123 54q-82 0 -126 -59q-44 -61 -44 -153z " />
<glyph unicode="c" horiz-adv-x="1409" d="M91 480q0 223 164 366q163 142 409 142q208 0 321 -83v65h307v-414h-307q-57 166 -193 166q-92 0 -142 -71q-50 -73 -50 -177q0 -113 54 -178q53 -65 138 -65q140 0 172 167l375 -84q-47 -162 -202 -252q-157 -90 -388 -90q-306 0 -482 138t-176 370z" />
<glyph unicode="d" horiz-adv-x="1642" d="M96 465q0 251 146 388q146 135 391 135q180 0 308 -80v178h-124v305h627v-1086h126v-305h-629v65q-140 -83 -324 -83q-205 0 -363 125t-158 358zM606 480q0 -91 42 -150q41 -60 125 -60q76 0 124 53q47 53 47 166q0 91 -42 152q-42 60 -125 60q-171 0 -171 -221z" />
<glyph unicode="e" horiz-adv-x="1430" d="M89 480q0 222 169 370q167 148 453 148q275 0 448 -140q170 -139 181 -423h-764q3 -236 176 -236q104 0 150 108l415 -51q-28 -65 -78 -116.5t-122 -89.5q-145 -78 -347 -78q-339 0 -510 141q-171 140 -171 367zM581 581q0 -11 1 -20h283q2 30 2 34q0 79 -40 131 q-40 51 -106 51q-68 0 -104 -56q-36 -57 -36 -140z" />
<glyph unicode="f" horiz-adv-x="938" d="M73 0v305h123v360h-123v305h123v23q0 152 65 244q64 90 170 136q105 46 346 46q108 0 213 -4v-271q-71 7 -125 7q-69 0 -107 -18q-39 -19 -51 -51q-13 -30 -13 -112h186v-305h-186v-360h164v-305h-785z" />
<glyph unicode="g" horiz-adv-x="1622" d="M88 488q0 230 157 365q156 135 378 135q182 0 319 -80v62h622v-305h-121v-532q0 -178 -32 -274q-33 -96 -118 -164q-85 -71 -213 -102q-127 -33 -337 -33q-94 0 -167.5 6t-168.5 20q-162 26 -235 55l138 246q117 -49 314 -49q130 0 203 37q74 36 95 85q20 49 20 139 q-151 -76 -337 -76q-217 0 -366 124q-151 123 -151 341zM597 479q0 -89 45 -148q45 -60 128 -60q88 0 131 61q43 59 43 149q0 98 -46 159q-47 62 -126 62q-85 0 -130 -65q-45 -64 -45 -158z" />
<glyph unicode="h" horiz-adv-x="1622" d="M46 0v305h127v781h-127v305h630v-538q201 135 395 135q171 0 271 -99q100 -100 100 -353v-231h114v-305h-617v397q0 181 -21 227q-22 46 -92 46q-73 0 -150 -51v-314h136v-305h-766z" />
<glyph unicode="i" horiz-adv-x="831" d="M72 0v305h100v360h-100v305h603v-665h84v-305h-687zM130 1244q0 79 81 127q80 48 198 48q121 0 195 -50q73 -51 73 -124q0 -79 -76 -125q-77 -47 -194 -47q-119 0 -198 43q-79 42 -79 128z" />
<glyph unicode="j" horiz-adv-x="831" d="M-10 -139q103 0 138 19q36 19 45 60q9 40 9 245v480h-99v305h602v-769q0 -243 -24 -343q-24 -102 -88 -164q-64 -64 -160 -90t-256 -26q-99 0 -167 9v274zM151 1244q0 79 80 127t198 48q122 0 196 -50q73 -51 73 -124q0 -78 -77 -125t-194 -47q-118 0 -197 43 q-79 42 -79 128z" />
<glyph unicode="k" horiz-adv-x="1516" d="M48 1086v305h629v-969l316 309h-177v239h620v-263h-113l-182 -178l219 -224h79v-305h-361l-401 422v-422h-627v305h124v781h-126z" />
<glyph unicode="l" horiz-adv-x="831" d="M68 0v305h103v781h-103v305h606v-1086h89v-305h-695z" />
<glyph unicode="m" horiz-adv-x="2454" d="M88 665v305h626v-133q72 61 189 106q116 45 222 45q247 0 331 -190q223 190 455 190q127 0 209 -54q84 -55 118 -146q35 -94 35 -264v-219h128v-305h-631v417q0 163 -25 203t-90 40q-82 0 -165 -62v-293h137v-305h-640v415q0 160 -22 203q-22 42 -89 42q-77 0 -162 -62 v-293h136v-305h-760v305h120v360h-122z" />
<glyph unicode="n" horiz-adv-x="1642" d="M70 0v305h125v360h-125v305h628v-123q185 141 397 141q186 0 280 -103q93 -103 93 -331v-249h115v-305h-618v431q0 141 -24 186q-26 44 -99 44q-67 0 -144 -51v-305h140v-305h-768z" />
<glyph unicode="o" d="M88 490q0 214 180 361t486 147q308 0 501 -142t193 -370q0 -220 -184 -367t-486 -147q-326 0 -508 147q-182 146 -182 371zM597 488q0 -232 166 -232q176 0 176 234q0 107 -43 166q-44 59 -124 59q-79 0 -127 -58t-48 -169z" />
<glyph unicode="p" horiz-adv-x="1642" d="M73 -140h119v805h-117v305h620v-65q160 83 329 83q216 0 371 -140q154 -141 154 -369q0 -230 -151 -363q-152 -134 -395 -134q-180 0 -308 80v-202h128v-305h-750v305zM692 481q0 -105 48 -158q47 -54 119 -54q171 0 171 218q0 213 -164 213q-75 0 -124 -52 q-50 -53 -50 -167z" />
<glyph unicode="q" horiz-adv-x="1642" d="M93 473q0 234 154 375q154 140 381 140q170 0 309 -83v65h630v-305h-126v-805h128v-305h-755v305h123v204q-128 -82 -318 -82q-221 0 -373 131q-153 131 -153 360zM602 478q0 -98 45 -154q45 -55 125 -55q83 0 126 60q43 59 43 152q0 219 -174 219q-165 0 -165 -222z" />
<glyph unicode="r" horiz-adv-x="1110" d="M66 0v305h132v360h-132v305h602v-243q34 91 105 157q68 65 138 85q67 19 197 19v-427q-17 1 -42 1q-154 0 -229 -31q-78 -32 -106 -84q-29 -54 -30 -142h147v-305h-782z" />
<glyph unicode="s" horiz-adv-x="1260" d="M90 676q0 161 114 237q113 75 287 75q180 0 302 -68v50h307v-282h-284q-106 101 -252 101q-115 0 -115 -61q0 -29 34 -38q29 -9 192 -43q185 -39 289 -78q103 -39 155 -103q51 -64 51 -157q0 -168 -125 -248q-124 -79 -306 -79q-181 0 -307 66v-60h-311v308h291 q112 -118 245 -118q134 0 134 55q0 28 -29 43q-30 16 -159 47q-104 28 -230 65q-109 31 -172 78q-65 47 -87 92q-24 45 -24 118z" />
<glyph unicode="t" horiz-adv-x="938" d="M32 665v305h124v149l503 239v-388h203v-305h-203v-188q0 -92 17 -123q16 -31 68 -31q49 0 118 31v-298q-49 -33 -142 -58q-98 -26 -188 -26q-113 0 -194 37q-83 38 -125 102q-23 37 -34 67.5t-16 68.5q-7 66 -7 255v163h-124z" />
<glyph unicode="u" horiz-adv-x="1622" d="M47 665v305h620v-462q0 -117 22 -157q21 -41 90 -41q84 0 156 45v310h-133v305h636v-665h117v-305h-620v123q-199 -141 -407 -141q-149 0 -256 95q-108 95 -108 358v230h-117z" />
<glyph unicode="v" horiz-adv-x="1386" d="M37 665v305h684v-305h-108l161 -369l170 369h-97v305h502v-305h-94l-355 -677h-403l-363 677h-97z" />
<glyph unicode="w" horiz-adv-x="2091" d="M43 665v305h654v-305h-97l114 -323l239 628h373l218 -628l124 323h-93v305h473v-305h-95l-282 -677h-399l-222 497l-208 -497h-398l-297 677h-104z" />
<glyph unicode="x" horiz-adv-x="1386" d="M59 665v305h491l178 -261l183 261h380v-305h-136l-125 -141l184 -219h112v-305h-481l-187 265l-196 -265h-381v305h122l143 155l-171 205h-116z" />
<glyph unicode="y" horiz-adv-x="1343" d="M20 665v305h661v-305h-107l169 -381l156 381h-94v305h501v-305h-97l-530 -1110h-424v295h163l49 99l-372 716h-75z" />
<glyph unicode="z" horiz-adv-x="1343" d="M82 0v256l545 486h-331v-113h-206v341h1172v-239l-554 -497h335v115h209v-349h-1170z" />
<glyph unicode="{" horiz-adv-x="797" d="M56 410v240q113 1 160 64q45 60 53 141q6 78 6 171q0 166 17 245q16 75 63 125q47 48 123 72q78 23 209 23h53v-239q-133 0 -168 -27q-36 -27 -36 -118q0 -295 -37 -399q-37 -105 -151 -178q92 -50 140 -149q47 -100 47 -427q0 -71 21 -99q20 -28 56 -37q35 -9 127 -9 v-240h-52q-173 0 -262 45q-89 44 -119 130q-31 84 -31 291q0 156 -17 229q-16 69 -63 105t-139 41z" />
<glyph unicode="|" horiz-adv-x="1309" d="M530 -440v1859h249v-1859h-249z" />
<glyph unicode="}" horiz-adv-x="797" d="M56 1252v239h53q202 0 275 -49q72 -49 105 -116q32 -67 32 -300q0 -158 17 -229q16 -69 64 -106q47 -37 138 -41v-240q-91 -4 -137 -40t-64 -106t-18 -229q0 -172 -16 -246q-17 -77 -62 -124q-46 -49 -124 -72q-76 -24 -209 -24h-53v240q127 0 165 28q39 28 39 117 q0 288 37 399q38 113 150 177q-123 74 -155 190q-33 116 -33 387q0 95 -37 120t-167 25z" />
<glyph unicode="~" horiz-adv-x="1343" d="M109 509v255q163 142 328 142q99 0 270 -85q153 -75 229 -75q131 0 297 151v-256q-162 -141 -319 -141q-63 0 -125 21q-57 18 -169 74q-135 65 -202 65q-151 0 -309 -151z" />
<glyph unicode="&#xa1;" horiz-adv-x="811" d="M156 606v364h499v-364h-499zM164 -30l72 441h341l70 -433v-399h-483v391z" />
<glyph unicode="&#xa2;" horiz-adv-x="1409" d="M91 498q0 208 152 354q153 147 412 154v154h135v-165q119 -19 195 -69v62h307v-414h-307q-61 166 -194 166q-85 0 -137 -67q-54 -67 -54 -181q0 -110 53 -177q53 -66 136 -66q144 0 175 168l375 -85q-44 -156 -191 -245q-149 -89 -358 -96v-162h-135v165 q-274 22 -419 163q-145 139 -145 341z" />
<glyph unicode="&#xa3;" horiz-adv-x="1280" d="M84 251q0 108 73 172q71 64 181 64q65 0 126 -26q-34 106 -110 183h-254v184h154q-48 93 -48 188q0 182 140 293q140 110 392 110q254 0 378 -97t124 -262l-327 -43q-19 150 -137 150q-49 0 -84 -32q-34 -31 -34 -86q0 -33 7 -55q9 -30 71 -166h310v-184h-255 q14 -58 14 -116q0 -98 -28 -173q65 -38 135 -38q104 0 134 129l235 -62q-48 -397 -367 -397q-165 0 -278 126q-124 -126 -275 -126q-117 0 -197 72q-80 71 -80 192zM203 250q0 -53 37 -90q36 -37 95 -37q137 0 158 151q-81 92 -172 92q-47 0 -82 -31q-36 -31 -36 -85z" />
<glyph unicode="&#xa4;" horiz-adv-x="1368" d="M146 327l132 131q-68 114 -68 245q0 129 68 244l-132 132l162 162l132 -132q116 68 244 68q129 0 245 -68l131 132l163 -162l-132 -132q67 -116 67 -244q0 -129 -67 -245l132 -131l-163 -163l-131 132q-116 -67 -244 -67q-132 0 -245 67l-132 -132zM437 703 q0 -103 72.5 -175.5t174.5 -72.5t175 72.5t73 175.5t-73 175t-175 72q-101 0 -174 -72t-73 -175z" />
<glyph unicode="&#xa5;" horiz-adv-x="1493" d="M36 1058v333h727v-333h-83l148 -284l179 284h-85v333h535v-333h-87l-142 -204h201v-134h-293l-116 -166v-13h409v-133h-409v-75h110v-333h-760v333h112v75h-417v133h417v13l-116 166h-301v134h208l-142 204h-95z" />
<glyph unicode="&#xa6;" horiz-adv-x="1309" d="M530 340h249v-780h-249v780zM530 638v781h249v-781h-249z" />
<glyph unicode="&#xa7;" horiz-adv-x="1386" d="M91 509q0 187 185 298q-122 110 -122 255q0 159 134 258t379 99q244 0 399 -101q154 -100 160 -267h-333q-42 173 -222 173q-84 0 -126 -36q-42 -37 -42 -85q0 -52 47 -85q46 -34 218 -87q195 -60 299 -116q110 -59 170 -150q59 -94 59 -204q0 -185 -186 -286 q142 -103 142 -241q0 -154 -140 -258t-403 -104q-261 0 -406 94q-146 95 -146 237q0 17 1 28h333q6 -83 61 -124.5t159 -41.5q179 0 179 113q0 49 -45 81q-43 29 -219 92q-217 76 -319 128q-100 51 -157 136q-59 86 -59 194zM424 584q0 -58 51 -102q51 -43 180 -87 q202 -70 257 -100q59 41 59 106q0 45 -31 85t-80 64q-55 25 -167 58q-163 49 -210 73q-59 -39 -59 -97z" />
<glyph unicode="&#xa8;" horiz-adv-x="682" d="M-103 1290q0 76 55 131q54 54 131 54t132 -54q54 -55 54 -131q0 -75 -54 -131q-54 -55 -132 -55t-132 55q-54 56 -54 131zM413 1290q0 76 55 131q56 54 131 54q78 0 132 -54q54 -55 54 -131q0 -77 -54 -131q-55 -55 -132 -55t-131 55q-55 55 -55 131z" />
<glyph unicode="&#xa9;" horiz-adv-x="1642" d="M56 654q0 204 105 387q34 58 78.5 111t95 94t112.5 75q90 49 182.5 73.5t191.5 24.5q191 0 373 -98q180 -97 286 -280q105 -183 105 -387q0 -317 -223 -540q-223 -225 -541 -225q-316 0 -540 225q-225 225 -225 540zM205 654q0 -254 181 -435t435 -181q253 0 434 181 t181 435q0 255 -181 436q-181 180 -434 180t-435 -180q-181 -181 -181 -436zM427 652q0 192 111 310t292 118q150 0 238 -77q87 -78 113 -182l-178 -34q-41 149 -180 149q-91 0 -143 -70q-53 -71 -53 -205q0 -292 190 -292q141 0 186 181l183 -51q-85 -274 -358 -274 q-123 0 -217 58q-93 56 -139 155q-45 98 -45 214z" />
<glyph unicode="&#xaa;" horiz-adv-x="981" d="M27 1233q50 117 152 151q105 35 269 35q200 0 285 -33q85 -34 113 -85q28 -50 28 -146v-146h81v-217h-425v31q-97 -42 -212 -42q-136 0 -206 59q-70 58 -70 139q0 88 84 145q83 56 229 56q88 0 175 -24q0 74 -34 93t-76 19q-83 0 -113 -60zM371 991q0 -27 24 -44 q23 -18 56 -18q34 0 79 22v82q-45 17 -76 17q-83 0 -83 -59z" />
<glyph unicode="&#xab;" horiz-adv-x="1579" d="M94 483l227 487h453l-220 -487l220 -483h-453zM836 483l227 487h459l-226 -487l226 -483h-459z" />
<glyph unicode="&#xac;" horiz-adv-x="1368" d="M122 820v248h1124v-731h-248v483h-876z" />
<glyph unicode="&#xad;" horiz-adv-x="918" d="M102 269v431h714v-431h-714z" />
<glyph unicode="&#xae;" horiz-adv-x="1642" d="M56 654q0 204 105 387q34 58 78.5 111t95 94t112.5 75q90 49 182.5 73.5t191.5 24.5q191 0 373 -98q180 -97 286 -280q105 -183 105 -387q0 -317 -223 -540q-223 -225 -541 -225q-316 0 -540 225q-225 225 -225 540zM205 654q0 -254 181 -435t435 -181t435 181t181 435 q0 166 -84 311q-84 146 -228 225q-146 80 -304 80q-252 0 -434 -180t-182 -436zM491 246v814h265q158 0 231 -18q72 -18 118 -74q45 -57 45 -138q0 -180 -219 -228q78 -21 167 -185q2 -2 13 -21.5t39 -68.5l48 -81h-222l-34 65q-100 195 -144 230q-43 33 -92 33 q-19 0 -31 -1v-327h-184zM675 711h78q115 0 161 26q45 26 45 82q0 43 -33 74q-34 31 -169 31h-82v-213z" />
<glyph unicode="&#xaf;" horiz-adv-x="1024" d="M-12 1545v102h1048v-102h-1048z" />
<glyph unicode="&#xb0;" horiz-adv-x="819" d="M90 1095q0 132 94 226q95 93 225 93q132 0 226 -93q93 -94 93 -226q0 -133 -93 -226q-94 -93 -226 -93q-135 0 -227 95t-92 224zM256 1095q0 -63 45 -108t108 -45t108 45t45 108t-45 108q-46 44 -108 44t-108 -44q-45 -45 -45 -108z" />
<glyph unicode="&#xb1;" horiz-adv-x="1368" d="M122 -44v248h1124v-248h-1124zM122 763v249h438v438h248v-438h438v-249h-438v-438h-248v438h-438z" />
<glyph unicode="&#xb2;" horiz-adv-x="831" d="M66 701q0 105 51 187q51 83 181 165q110 69 139 97q29 27 29 53q0 49 -73 49q-79 0 -79 -74q0 -14 1 -23l-237 6q2 258 329 258q154 0 248 -62q92 -63 92 -165q0 -67 -47 -123q-49 -57 -184 -116q-142 -61 -174 -93h214l3 60h193l-8 -259h-676z" />
<glyph unicode="&#xb3;" horiz-adv-x="831" d="M40 935l237 15q2 -73 32 -92q32 -21 78 -21q88 0 88 64q0 69 -133 72v151q44 0 80 17q34 16 34 47q0 53 -76 53q-79 0 -81 -81l-245 11q8 248 351 248q175 0 255 -65q79 -64 79 -152q0 -82 -83 -141q113 -59 113 -173q0 -106 -98 -171q-97 -66 -271 -66q-357 0 -360 284z " />
<glyph unicode="&#xb4;" horiz-adv-x="682" d="M126 1071l189 363h463l-414 -363h-238z" />
<glyph unicode="&#xb5;" horiz-adv-x="1366" d="M200 -407v1469h279v-481q0 -209 48 -294.5t150 -85.5q69 0 121.5 47.5t68 118t15.5 211.5v484h284v-1062h-262v128q-82 -154 -213 -154q-66 0 -114.5 31.5t-97.5 122.5v-535h-279z" />
<glyph unicode="&#xb6;" horiz-adv-x="1741" d="M174 958q0 113 53 207q53 93 140 145q87 54 169 67q39 7 119 10.5t212 3.5h626v-261h-124v-1570h-240v1570h-162v-1570h-240v985q-270 0 -411 114q-142 112 -142 299z" />
<glyph unicode="&#xb8;" horiz-adv-x="682" d="M105 -329q184 0 184 80q0 53 -55 53q-26 0 -54 -11v127q101 57 207 57q102 0 172 -57t70 -145q0 -94 -93 -163q-92 -70 -264 -70q-104 0 -167 15v114z" />
<glyph unicode="&#xb9;" horiz-adv-x="831" d="M159 661v200h117v281q-28 -4 -70 -4q-21 0 -47 2v193h31q80 0 143 27q62 26 89 59h139v-558h113v-200h-515z" />
<glyph unicode="&#xba;" horiz-adv-x="981" d="M43 1099q0 137 121 228q121 92 319 92q185 0 320 -84q135 -85 135 -236q0 -147 -125 -236q-124 -88 -320 -88q-211 0 -330 92q-120 92 -120 232zM393 1097q0 -116 94 -116q101 0 101 120q0 113 -95 113q-100 0 -100 -117z" />
<glyph unicode="&#xbb;" horiz-adv-x="1579" d="M57 0l227 487l-227 483h459l227 -483l-227 -487h-459zM805 0l221 487l-221 483h453l227 -483l-227 -487h-453z" />
<glyph unicode="&#xbc;" horiz-adv-x="1985" d="M159 661v200h117v281q-28 -4 -70 -4q-21 0 -47 2v193h31q80 0 143 27q62 26 89 59h139v-558h113v-200h-515zM439 -22l937 1441h219l-937 -1441h-219zM1178 407l396 351h268v-361h85v-164h-85v-52h85v-181h-453v181h105v52h-348zM1391 397h188v167z" />
<glyph unicode="&#xbd;" horiz-adv-x="1985" d="M159 661v200h117v281q-28 -4 -70 -4q-21 0 -47 2v193h31q80 0 143 27q62 26 89 59h139v-558h113v-200h-515zM415 -22l937 1441h218l-936 -1441h-219zM1220 41q0 78 41 168q41 88 191 183q111 73 138 98q29 27 29 53q0 48 -73 48q-78 0 -78 -74q0 -14 1 -23l-237 7 q2 257 329 257q156 0 247 -63q92 -65 92 -164q0 -67 -47 -123q-48 -55 -184 -115q-142 -63 -173 -93h213l3 59h194l-9 -259h-675q-2 40 -2 41z" />
<glyph unicode="&#xbe;" horiz-adv-x="1985" d="M40 935l237 15q2 -73 32 -92q32 -21 78 -21q88 0 88 64q0 69 -133 72v151q44 0 80 17q34 16 34 47q0 53 -76 53q-79 0 -81 -81l-245 11q8 248 351 248q175 0 255 -65q79 -64 79 -152q0 -82 -83 -141q113 -59 113 -173q0 -106 -98 -171q-97 -66 -271 -66q-357 0 -360 284z M438 -22l937 1441h218l-936 -1441h-219zM1178 407l396 351h268v-361h85v-164h-85v-52h85v-181h-453v181h105v52h-347zM1391 397h188v167z" />
<glyph unicode="&#xbf;" horiz-adv-x="1300" d="M52 -49q0 163 128 276t356 113l20 89h262l26 -312q-51 19 -118 19q-107 0 -160 -53q-52 -52 -52 -128q0 -73 47 -122q47 -48 123 -48q64 0 114 38q49 37 49 127h402q-11 -200 -176 -299q-164 -100 -419 -100q-278 0 -440 108q-162 106 -162 292zM438 606v364h499v-364 h-499z" />
<glyph unicode="&#xc0;" horiz-adv-x="1556" d="M23 0v333h106l261 725h-112v333h1000v-333h-112l266 -725h102v-333h-726v305h122l-53 175h-356l-61 -175h114v-305h-551zM307 1835h464l191 -357h-244zM574 653h249l-118 385z" />
<glyph unicode="&#xc1;" horiz-adv-x="1556" d="M23 0v333h106l261 725h-112v333h1000v-333h-112l266 -725h102v-333h-726v305h122l-53 175h-356l-61 -175h114v-305h-551zM574 653h249l-118 385zM607 1478l191 357h464l-411 -357h-244z" />
<glyph unicode="&#xc2;" horiz-adv-x="1556" d="M23 0v333h106l261 725h-112v333h1000v-333h-112l266 -725h102v-333h-726v305h122l-53 175h-356l-61 -175h114v-305h-551zM330 1478l181 357h530l186 -357h-282l-166 156l-170 -156h-279zM574 653h249l-118 385z" />
<glyph unicode="&#xc3;" horiz-adv-x="1556" d="M23 0v333h106l261 725h-112v333h1000v-333h-112l266 -725h102v-333h-726v305h122l-53 175h-356l-61 -175h114v-305h-551zM327 1484q21 145 99 246.5t196 101.5q61 0 162 -44q103 -45 140 -45q67 0 77 85h228q-26 -154 -101 -252t-184 -98q-59 0 -180 50q-90 36 -125 36 q-64 0 -84 -80h-228zM574 653h249l-118 385z" />
<glyph unicode="&#xc4;" horiz-adv-x="1556" d="M23 0v333h106l261 725h-112v333h1000v-333h-112l266 -725h102v-333h-726v305h122l-53 175h-356l-61 -175h114v-305h-551zM312 1664q0 76 54.5 130.5t131.5 54.5q76 0 131 -54t55 -131q0 -78 -55 -132t-131 -54q-77 0 -131.5 55t-54.5 131zM574 653h249l-118 385z M873 1664q0 76 54.5 130.5t131.5 54.5q75 0 130 -54t55 -131t-54.5 -131.5t-130.5 -54.5q-77 0 -131.5 55t-54.5 131z" />
<glyph unicode="&#xc5;" horiz-adv-x="1556" d="M23 0v333h106l261 725h-112v333h274q-51 72 -51 160q0 114 81 196q81 81 196 81t197 -81q81 -81 81 -196q0 -86 -51 -160h273v-333h-112l266 -725h102v-333h-726v305h122l-53 175h-356l-61 -175h114v-305h-551zM574 653h249l-118 385zM618 1551q0 -66 47 -113t113 -47 t113 47t47 113q0 64 -45 112q-46 48 -115 48q-66 0 -113 -47q-47 -49 -47 -113z" />
<glyph unicode="&#xc6;" horiz-adv-x="2241" d="M-26 0v333h83l387 725h-114v333h1799v-443h-371v110h-313v-214h277v-283h-277v-228h313v113h371v-446h-1333v333h111v228h-385l-113 -228h129v-333h-564zM656 828h251v276h-111z" />
<glyph unicode="&#xc7;" horiz-adv-x="1642" d="M100 695q0 295 185 510q184 214 495 214q245 0 399 -121v93h334v-508h-347q-27 95 -91 150q-64 54 -146 54q-226 0 -226 -387q0 -392 234 -392q205 0 258 305l361 -127q-24 -115 -77 -206.5t-135 -158.5q-163 -135 -404 -142q235 -46 235 -214q0 -105 -102 -163 q-101 -58 -289 -58q-151 0 -271 21l17 134q25 -5 63 -5q140 0 140 70q0 49 -65 49q-15 0 -38 -3l27 108q58 41 162 61q-145 0 -321 69q-176 68 -287 246q-111 179 -111 401z" />
<glyph unicode="&#xc8;" d="M91 1058v333h1329v-445h-365v112h-316v-214h275v-283h-275v-228h316v112h365v-445h-1327v333h108v725h-110zM322 1835h464l191 -357h-244z" />
<glyph unicode="&#xc9;" d="M91 1058v333h1329v-445h-365v112h-316v-214h275v-283h-275v-228h316v112h365v-445h-1327v333h108v725h-110zM534 1478l191 357h464l-410 -357h-245z" />
<glyph unicode="&#xca;" d="M91 1058v333h1329v-445h-365v112h-316v-214h275v-283h-275v-228h316v112h365v-445h-1327v333h108v725h-110zM307 1478l182 357h529l186 -357h-282l-166 156l-170 -156h-279z" />
<glyph unicode="&#xcb;" d="M91 1058v333h1329v-445h-365v112h-316v-214h275v-283h-275v-228h316v112h365v-445h-1327v333h108v725h-110zM290 1664q0 76 54.5 130.5t130.5 54.5t131 -54t55 -131q0 -78 -54.5 -132t-131.5 -54q-78 0 -131.5 55t-53.5 131zM850 1664q0 76 54.5 130.5t131.5 54.5 q78 0 132 -54.5t54 -130.5q0 -77 -55 -131.5t-131 -54.5q-78 0 -132 55t-54 131z" />
<glyph unicode="&#xcc;" horiz-adv-x="938" d="M-38 1835h464l191 -357h-244zM71 0v333h129v725h-129v333h794v-333h-127v-725h127v-333h-794z" />
<glyph unicode="&#xcd;" horiz-adv-x="938" d="M72 0v333h128v725h-128v333h793v-333h-127v-725h127v-333h-793zM320 1478l191 357h464l-411 -357h-244z" />
<glyph unicode="&#xce;" horiz-adv-x="938" d="M19 1478l182 357h529l187 -357h-283l-165 156l-171 -156h-279zM71 0v333h129v725h-129v333h793v-333h-126v-725h126v-333h-793z" />
<glyph unicode="&#xcf;" horiz-adv-x="938" d="M2 1664q0 76 54.5 130.5t131.5 54.5t131.5 -54.5t54.5 -130.5q0 -78 -55 -132t-131 -54q-77 0 -131.5 55t-54.5 131zM71 0v333h129v725h-129v333h794v-333h-127v-725h127v-333h-794zM562 1664q0 76 55 130.5t131 54.5q78 0 132 -54.5t54 -130.5q0 -75 -53.5 -130.5 t-132.5 -55.5q-78 0 -132 55t-54 131z" />
<glyph unicode="&#xd0;" horiz-adv-x="1792" d="M81 603v199h133v256h-109v333h666q228 0 372 -28q145 -28 273 -115q127 -88 200 -238q36 -72 55 -154t19 -172q0 -181 -77 -330q-76 -148 -193 -227q-114 -79 -250 -103q-135 -24 -418 -24h-647v333h109v270h-133zM752 333h51q190 0 247 101q56 101 56 254q0 145 -40 228 q-41 84 -107 113q-69 29 -187 29h-20v-256h209v-199h-209v-270z" />
<glyph unicode="&#xd1;" horiz-adv-x="1749" d="M67 0v333h122v725h-122v333h659l506 -727v394h-113v333h561v-333h-121v-1076h-458l-586 841v-490h123v-333h-571zM423 1484q21 145 98.5 246.5t195.5 101.5q61 0 163 -44q102 -45 140 -45q67 0 77 85h228q-26 -154 -101.5 -252t-183.5 -98q-60 0 -181 50q-90 36 -125 36 q-63 0 -84 -80h-227z" />
<glyph unicode="&#xd2;" horiz-adv-x="1772" d="M102 699q0 174 84.5 336.5t261.5 273t438 110.5q373 0 579 -219.5t206 -500.5q0 -292 -212 -506.5t-573 -214.5q-348 0 -566 201.5t-218 519.5zM417 1835h463l191 -357h-244zM706 699q0 -232 44.5 -313.5t135.5 -81.5t136 79t45 316q0 230 -44 312t-137 82 q-90 0 -135 -79t-45 -315z" />
<glyph unicode="&#xd3;" horiz-adv-x="1772" d="M102 699q0 174 84.5 336.5t261.5 273t438 110.5q373 0 579 -219.5t206 -500.5q0 -292 -212 -506.5t-573 -214.5q-348 0 -566 201.5t-218 519.5zM701 1478l191 357h464l-411 -357h-244zM706 699q0 -232 44.5 -313.5t135.5 -81.5t136 79t45 316q0 230 -44 312t-137 82 q-90 0 -135 -79t-45 -315z" />
<glyph unicode="&#xd4;" horiz-adv-x="1772" d="M102 699q0 174 84.5 336.5t261.5 273t438 110.5q373 0 579 -219.5t206 -500.5q0 -292 -212 -506.5t-573 -214.5q-348 0 -566 201.5t-218 519.5zM437 1478l182 357h530l186 -357h-282l-166 156l-170 -156h-280zM706 699q0 -232 44.5 -313.5t135.5 -81.5t136 79t45 316 q0 230 -44 312t-137 82q-90 0 -135 -79t-45 -315z" />
<glyph unicode="&#xd5;" horiz-adv-x="1772" d="M102 699q0 174 84.5 336.5t261.5 273t438 110.5q373 0 579 -219.5t206 -500.5q0 -292 -212 -506.5t-573 -214.5q-348 0 -566 201.5t-218 519.5zM435 1484q21 145 99 246.5t195 101.5q62 0 163 -44q103 -45 140 -45q69 0 77 85h228q-26 -154 -101.5 -252t-183.5 -98 q-59 0 -180 50q-90 36 -125 36q-65 0 -85 -80h-227zM706 699q0 -232 44.5 -313.5t135.5 -81.5t136 79t45 316q0 230 -44 312t-137 82q-90 0 -135 -79t-45 -315z" />
<glyph unicode="&#xd6;" horiz-adv-x="1772" d="M102 699q0 174 84.5 336.5t261.5 273t438 110.5q373 0 579 -219.5t206 -500.5q0 -292 -212 -506.5t-573 -214.5q-348 0 -566 201.5t-218 519.5zM420 1664q0 76 54.5 130.5t131.5 54.5q76 0 131 -54t55 -131q0 -78 -55 -132t-131 -54q-77 0 -131.5 55t-54.5 131zM706 699 q0 -232 44.5 -313.5t135.5 -81.5t136 79t45 316q0 230 -44 312t-137 82q-90 0 -135 -79t-45 -315zM981 1664q0 76 54.5 130.5t130.5 54.5t131 -54t55 -131q0 -75 -53 -130.5t-133 -55.5q-77 0 -131 55t-54 131z" />
<glyph unicode="&#xd7;" horiz-adv-x="1368" d="M149 344l359 359l-359 359l176 176l359 -359l359 359l176 -176l-359 -359l359 -359l-176 -176l-359 359l-359 -359z" />
<glyph unicode="&#xd8;" horiz-adv-x="1772" d="M102 685q0 307 213 521q212 213 571 213q233 0 403 -89l80 94l140 -115l-71 -84q233 -216 233 -526q0 -291 -212 -506t-573 -215q-251 0 -420 97l-78 -93l-143 110l76 89q-219 200 -219 504zM706 699q0 -43 1 -60l315 374q-42 80 -136 80q-93 0 -136 -82 q-44 -83 -44 -312zM742 402q38 -98 144 -98q93 0 137 83t44 312q0 32 -2 84z" />
<glyph unicode="&#xd9;" horiz-adv-x="1493" d="M60 1058v333h712v-333h-66v-469q0 -169 32 -229t115 -60q68 0 99.5 51t31.5 205v502h-70v333h523v-333h-110v-504q0 -194 -56 -316t-186.5 -191t-319.5 -69q-151 0 -271.5 36.5t-190 110.5t-103 176.5t-33.5 310.5v446h-107zM347 1835h463l191 -357h-244z" />
<glyph unicode="&#xda;" horiz-adv-x="1493" d="M60 1058v333h712v-333h-66v-469q0 -169 32 -229t115 -60q68 0 99.5 51t31.5 205v502h-70v333h523v-333h-110v-504q0 -194 -56 -316t-186.5 -191t-319.5 -69q-151 0 -271.5 36.5t-190 110.5t-103 176.5t-33.5 310.5v446h-107zM615 1478l191 357h464l-411 -357h-244z" />
<glyph unicode="&#xdb;" horiz-adv-x="1493" d="M60 1058v333h712v-333h-66v-469q0 -169 32 -229t115 -60q68 0 99.5 51t31.5 205v502h-70v333h523v-333h-110v-504q0 -194 -56 -316t-186.5 -191t-319.5 -69q-151 0 -271.5 36.5t-190 110.5t-103 176.5t-33.5 310.5v446h-107zM300 1478l181 357h530l186 -357h-282 l-166 156l-170 -156h-279z" />
<glyph unicode="&#xdc;" horiz-adv-x="1493" d="M60 1058v333h712v-333h-66v-469q0 -169 32 -229t115 -60q68 0 99.5 51t31.5 205v502h-70v333h523v-333h-110v-504q0 -194 -56 -316t-186.5 -191t-319.5 -69q-151 0 -271.5 36.5t-190 110.5t-103 176.5t-33.5 310.5v446h-107zM282 1664q0 76 54.5 130.5t131.5 54.5 q76 0 131 -54t55 -131q0 -76 -53.5 -131t-132.5 -55q-78 0 -132 55t-54 131zM843 1664q0 76 54.5 130.5t131.5 54.5q75 0 130 -54t55 -131t-54.5 -131.5t-130.5 -54.5q-77 0 -131.5 55t-54.5 131z" />
<glyph unicode="&#xdd;" horiz-adv-x="1493" d="M36 1058v333h727v-333h-83l148 -284l179 284h-85v333h535v-333h-87l-350 -504v-221h110v-333h-760v333h112v221l-351 504h-95zM613 1478l191 357h464l-411 -357h-244z" />
<glyph unicode="&#xde;" horiz-adv-x="1686" d="M90 0v185h135v1021h-135v185h808v-185h-135v-79h180q295 0 433 -59q136 -58 199 -159q62 -101 62 -216q0 -147 -76 -244q-76 -98 -201 -142q-123 -43 -380 -43h-217v-79h135v-185h-808zM763 561h105q137 0 173 37q35 38 35 91q0 48 -26 82q-25 33 -67 42q-40 9 -136 9 h-84v-261z" />
<glyph unicode="&#xdf;" horiz-adv-x="1622" d="M55 0v305h123v517q0 188 26 278q25 87 111 167q85 78 224 115q138 37 311 37q299 0 471 -94t172 -270q0 -94 -62 -171q-62 -78 -161 -103q272 -104 272 -367q0 -181 -116 -306q-117 -126 -329 -126q-128 0 -236 40v231q18 -6 41 -6q125 0 125 179q0 122 -46 171 q-47 50 -148 56v227q153 0 153 150q0 74 -43 113t-108 39q-66 0 -105 -41q-40 -43 -44 -109q-5 -75 -5 -274v-453h72v-305h-698z" />
<glyph unicode="&#xe0;" d="M81 739q65 143 209.5 201t422.5 58q195 0 329.5 -26t197.5 -77.5t89 -113.5t26 -196v-280h124v-305h-627v66q-130 -84 -348 -84q-205 0 -309.5 90t-104.5 213q0 136 128.5 223t334.5 87q186 0 299 -49v29q0 88 -13.5 126t-62 64.5t-115.5 26.5q-121 0 -186 -93zM343 1434 h463l189 -363h-238zM566 331q0 -59 40 -96.5t94 -37.5q93 0 152 51v177q-67 36 -142 36q-66 0 -105 -36.5t-39 -93.5z" />
<glyph unicode="&#xe1;" d="M81 739q65 143 209.5 201t422.5 58q195 0 329.5 -26t197.5 -77.5t89 -113.5t26 -196v-280h124v-305h-627v66q-130 -84 -348 -84q-205 0 -309.5 90t-104.5 213q0 136 128.5 223t334.5 87q186 0 299 -49v29q0 88 -13.5 126t-62 64.5t-115.5 26.5q-121 0 -186 -93zM565 1071 l190 363h462l-414 -363h-238zM566 331q0 -59 40 -96.5t94 -37.5q93 0 152 51v177q-67 36 -142 36q-66 0 -105 -36.5t-39 -93.5z" />
<glyph unicode="&#xe2;" d="M81 739q65 143 209.5 201t422.5 58q195 0 329.5 -26t197.5 -77.5t89 -113.5t26 -196v-280h124v-305h-627v66q-130 -84 -348 -84q-205 0 -309.5 90t-104.5 213q0 136 128.5 223t334.5 87q186 0 299 -49v29q0 88 -13.5 126t-62 64.5t-115.5 26.5q-121 0 -186 -93zM333 1071 l208 363h483l203 -363h-277l-171 140l-161 -140h-285zM566 331q0 -59 40 -96.5t94 -37.5q93 0 152 51v177q-67 36 -142 36q-66 0 -105 -36.5t-39 -93.5z" />
<glyph unicode="&#xe3;" d="M81 739q65 143 209.5 201t422.5 58q195 0 329.5 -26t197.5 -77.5t89 -113.5t26 -196v-280h124v-305h-627v66q-130 -84 -348 -84q-205 0 -309.5 90t-104.5 213q0 136 128.5 223t334.5 87q186 0 299 -49v29q0 88 -13.5 126t-62 64.5t-115.5 26.5q-121 0 -186 -93zM339 1072 q13 170 89 261t185 91q73 0 196 -55q72 -32 106 -32q68 0 85 90h222q-7 -160 -81.5 -258t-196.5 -98q-80 0 -182 51q-78 39 -110 39q-74 0 -90 -89h-223zM566 331q0 -59 40 -96.5t94 -37.5q93 0 152 51v177q-67 36 -142 36q-66 0 -105 -36.5t-39 -93.5z" />
<glyph unicode="&#xe4;" d="M81 739q65 143 209.5 201t422.5 58q195 0 329.5 -26t197.5 -77.5t89 -113.5t26 -196v-280h124v-305h-627v66q-130 -84 -348 -84q-205 0 -309.5 90t-104.5 213q0 136 128.5 223t334.5 87q186 0 299 -49v29q0 88 -13.5 126t-62 64.5t-115.5 26.5q-121 0 -186 -93zM336 1290 q0 76 54.5 130.5t131.5 54.5t131.5 -54.5t54.5 -130.5q0 -78 -55 -132t-131 -54q-77 0 -131.5 55t-54.5 131zM566 331q0 -59 40 -96.5t94 -37.5q93 0 152 51v177q-67 36 -142 36q-66 0 -105 -36.5t-39 -93.5zM852 1290q0 76 55 130.5t131 54.5t131 -54t55 -131 q0 -75 -53 -130.5t-133 -55.5q-78 0 -132 55t-54 131z" />
<glyph unicode="&#xe5;" d="M81 739q65 143 209.5 201t422.5 58q195 0 329.5 -26t197.5 -77.5t89 -113.5t26 -196v-280h124v-305h-627v66q-130 -84 -348 -84q-205 0 -309.5 90t-104.5 213q0 136 128.5 223t334.5 87q186 0 299 -49v29q0 88 -13.5 126t-62 64.5t-115.5 26.5q-121 0 -186 -93zM560 1270 q0 90 64.5 155t155.5 65t155.5 -64.5t64.5 -155.5q0 -89 -63 -154.5t-157 -65.5q-91 0 -155.5 64.5t-64.5 155.5zM566 331q0 -59 40 -96.5t94 -37.5q93 0 152 51v177q-67 36 -142 36q-66 0 -105 -36.5t-39 -93.5zM660 1270q0 -50 35 -85.5t85 -35.5t85.5 35.5t35.5 85.5 t-35.5 85t-85.5 35t-85 -35.5t-35 -84.5z" />
<glyph unicode="&#xe6;" horiz-adv-x="2198" d="M88 273q0 135 131 222t325 87q182 0 312 -48q3 27 3 54q0 126 -55 169q-55 42 -143 42q-117 0 -180 -96l-392 36q46 127 194 193q149 66 436 66q276 0 455 -64q149 64 328 64q277 0 447 -149q168 -148 168 -414h-759q0 -236 177 -236q93 0 142 111l420 -52 q-49 -121 -191 -203q-143 -83 -376 -83q-374 0 -532 182q-194 -182 -478 -182q-225 0 -329 95q-103 94 -103 206zM567 293q0 -57 40 -94t100 -37q82 0 149 54v171q-61 37 -146 37q-61 0 -102 -35t-41 -96zM1358 561h285q0 214 -143 214q-142 0 -142 -214z" />
<glyph unicode="&#xe7;" horiz-adv-x="1409" d="M91 480q0 223 164 366q163 142 409 142q208 0 321 -83v65h307v-414h-307q-57 166 -193 166q-92 0 -142 -71q-50 -73 -50 -177q0 -113 54 -178q53 -65 138 -65q140 0 172 167l375 -84q-93 -314 -543 -341q92 -13 146 -70q52 -56 52 -128q0 -92 -92 -163t-268 -71 q-100 0 -165 16v114q184 0 184 80q0 53 -55 53q-26 0 -54 -11v127q61 36 150 53q-94 0 -249 45q-153 43 -254 170q-100 124 -100 292z" />
<glyph unicode="&#xe8;" horiz-adv-x="1430" d="M89 480q0 221 168.5 369.5t453.5 148.5q276 0 447.5 -140t181.5 -423h-764q3 -236 176 -236q103 0 150 108l415 -51q-55 -128 -200 -206t-347 -78q-339 0 -510 140.5t-171 367.5zM278 1434h462l190 -363h-239zM581 581q0 -7 1 -20h283q2 23 2 34q0 79 -40.5 130.5 t-105.5 51.5q-68 0 -104 -56.5t-36 -139.5z" />
<glyph unicode="&#xe9;" horiz-adv-x="1430" d="M89 480q0 221 168.5 369.5t453.5 148.5q276 0 447.5 -140t181.5 -423h-764q3 -236 176 -236q103 0 150 108l415 -51q-55 -128 -200 -206t-347 -78q-339 0 -510 140.5t-171 367.5zM499 1071l190 363h462l-413 -363h-239zM581 581q0 -7 1 -20h283q2 23 2 34 q0 79 -40.5 130.5t-105.5 51.5q-68 0 -104 -56.5t-36 -139.5z" />
<glyph unicode="&#xea;" horiz-adv-x="1430" d="M89 480q0 221 168.5 369.5t453.5 148.5q276 0 447.5 -140t181.5 -423h-764q3 -236 176 -236q103 0 150 108l415 -51q-55 -128 -200 -206t-347 -78q-339 0 -510 140.5t-171 367.5zM267 1071l208 363h483l203 -363h-277l-171 140l-161 -140h-285zM581 581q0 -7 1 -20h283 q2 23 2 34q0 79 -40.5 130.5t-105.5 51.5q-68 0 -104 -56.5t-36 -139.5z" />
<glyph unicode="&#xeb;" horiz-adv-x="1430" d="M89 480q0 221 168.5 369.5t453.5 148.5q276 0 447.5 -140t181.5 -423h-764q3 -236 176 -236q103 0 150 108l415 -51q-55 -128 -200 -206t-347 -78q-339 0 -510 140.5t-171 367.5zM270 1290q0 76 55 130.5t131 54.5q77 0 131.5 -54.5t54.5 -130.5q0 -78 -55 -132t-131 -54 q-78 0 -132 55t-54 131zM581 581q0 -7 1 -20h283q2 23 2 34q0 79 -40.5 130.5t-105.5 51.5q-68 0 -104 -56.5t-36 -139.5zM787 1290q0 76 54.5 130.5t131.5 54.5t131 -54.5t54 -130.5q0 -75 -53 -130.5t-132 -55.5q-78 0 -132 55t-54 131z" />
<glyph unicode="&#xec;" horiz-adv-x="831" d="M-21 1434h463l189 -363h-238zM72 0v305h100v360h-100v305h603v-665h85v-305h-688z" />
<glyph unicode="&#xed;" horiz-adv-x="831" d="M72 0v305h100v360h-100v305h603v-665h84v-305h-687zM201 1071l189 363h463l-414 -363h-238z" />
<glyph unicode="&#xee;" horiz-adv-x="831" d="M-59 1071l207 363h484l203 -363h-278l-171 140l-160 -140h-285zM72 0v305h100v360h-100v305h603v-665h85v-305h-688z" />
<glyph unicode="&#xef;" horiz-adv-x="831" d="M-28 1290q0 76 54.5 130.5t131.5 54.5t131.5 -54.5t54.5 -130.5t-54 -131t-132 -55t-132 55t-54 131zM72 0v305h100v360h-100v305h603v-665h85v-305h-688zM488 1290q0 76 55 130.5t131 54.5q78 0 132 -54.5t54 -130.5q0 -77 -54.5 -131.5t-131.5 -54.5t-131.5 55 t-54.5 131z" />
<glyph unicode="&#xf0;" horiz-adv-x="1552" d="M86 480q0 193 170 351q169 157 451 157q116 0 219 -33q-28 37 -78.5 92.5t-124.5 125.5l-455 -77l-27 143l338 56q-11 8 -51 41q-59 51 -103 83h475q43 -33 78 -56l314 56l22 -143l-193 -37q343 -325 343 -713q0 -239 -183 -397q-184 -157 -522 -157q-315 0 -494 149 t-179 359zM601 477q0 -116 50 -169q49 -52 116 -52q174 0 174 240q0 107 -46 163q-47 56 -126 56q-74 0 -121 -56t-47 -182z" />
<glyph unicode="&#xf1;" horiz-adv-x="1642" d="M70 0v305h125v360h-125v305h628v-123q184 141 397 141q186 0 279.5 -103t93.5 -331v-249h115v-305h-618v431q0 141 -24.5 185.5t-98.5 44.5q-68 0 -144 -51v-305h140v-305h-768zM385 1072q14 170 90 261t184 91q74 0 196 -55q72 -32 107 -32q67 0 84 90h222 q-7 -160 -81.5 -258t-196.5 -98q-80 0 -182 51q-78 39 -110 39q-74 0 -90 -89h-223z" />
<glyph unicode="&#xf2;" d="M88 490q0 214 180 361t486 147q308 0 501 -142t193 -370q0 -220 -184.5 -367t-485.5 -147q-326 0 -508 146.5t-182 371.5zM331 1434h463l189 -363h-238zM597 488q0 -232 166 -232q176 0 176 234q0 106 -43.5 165.5t-123.5 59.5q-79 0 -127 -58t-48 -169z" />
<glyph unicode="&#xf3;" d="M88 490q0 214 180 361t486 147q308 0 501 -142t193 -370q0 -220 -184.5 -367t-485.5 -147q-326 0 -508 146.5t-182 371.5zM553 1071l189 363h463l-414 -363h-238zM597 488q0 -232 166 -232q176 0 176 234q0 106 -43.5 165.5t-123.5 59.5q-79 0 -127 -58t-48 -169z" />
<glyph unicode="&#xf4;" d="M88 490q0 214 180 361t486 147q308 0 501 -142t193 -370q0 -220 -184.5 -367t-485.5 -147q-326 0 -508 146.5t-182 371.5zM321 1071l208 363h483l203 -363h-277l-172 140l-160 -140h-285zM597 488q0 -232 166 -232q176 0 176 234q0 106 -43.5 165.5t-123.5 59.5 q-79 0 -127 -58t-48 -169z" />
<glyph unicode="&#xf5;" d="M88 490q0 214 180 361t486 147q308 0 501 -142t193 -370q0 -220 -184.5 -367t-485.5 -147q-326 0 -508 146.5t-182 371.5zM327 1072q13 170 89 261t185 91q73 0 196 -55q72 -32 106 -32q68 0 85 90h222q-7 -160 -81.5 -258t-196.5 -98q-80 0 -182 51q-78 39 -110 39 q-74 0 -90 -89h-223zM597 488q0 -232 166 -232q176 0 176 234q0 106 -43.5 165.5t-123.5 59.5q-79 0 -127 -58t-48 -169z" />
<glyph unicode="&#xf6;" d="M88 490q0 214 180 361t486 147q308 0 501 -142t193 -370q0 -220 -184.5 -367t-485.5 -147q-326 0 -508 146.5t-182 371.5zM324 1290q0 76 54.5 130.5t131.5 54.5t131.5 -54.5t54.5 -130.5q0 -78 -55 -132t-131 -54q-78 0 -132 55t-54 131zM597 488q0 -232 166 -232 q176 0 176 234q0 106 -43.5 165.5t-123.5 59.5q-79 0 -127 -58t-48 -169zM840 1290q0 76 55 130.5t131 54.5q78 0 132 -54.5t54 -130.5q0 -77 -54.5 -131.5t-131.5 -54.5t-131.5 55t-54.5 131z" />
<glyph unicode="&#xf7;" horiz-adv-x="1368" d="M122 586v234h1124v-234h-1124zM539 284q0 61 43 104q44 42 102 42q59 0 103 -41q43 -42 43 -105q0 -60 -43 -103t-103 -43t-102 43q-43 42 -43 103zM539 1121q0 63 44 105q44 41 101 41q59 0 103 -41q43 -42 43 -105q0 -60 -42 -102q-43 -43 -104 -43q-59 0 -102 43 q-43 42 -43 102z" />
<glyph unicode="&#xf8;" d="M88 490q0 216 182 362t484 146q201 0 366 -67l95 95l99 -92l-70 -70q204 -148 204 -379q0 -158 -98 -280q-47 -60 -110 -105t-137 -73q-149 -55 -325 -55q-200 0 -362 62l-107 -108l-99 95l82 81q-204 149 -204 388zM597 482q0 -34 6 -69l267 268q-40 34 -98 34 q-76 0 -126 -56q-49 -56 -49 -177zM668 286q41 -30 93 -30q92 0 135 64q43 62 43 163q0 28 -5 70z" />
<glyph unicode="&#xf9;" horiz-adv-x="1622" d="M47 665v305h620v-462q0 -117 21.5 -157.5t90.5 -40.5q84 0 156 45v310h-133v305h636v-665h117v-305h-620v123q-200 -141 -407 -141q-149 0 -256.5 95t-107.5 358v230h-117zM364 1434h463l189 -363h-238z" />
<glyph unicode="&#xfa;" horiz-adv-x="1622" d="M47 665v305h620v-462q0 -117 21.5 -157.5t90.5 -40.5q84 0 156 45v310h-133v305h636v-665h117v-305h-620v123q-200 -141 -407 -141q-149 0 -256.5 95t-107.5 358v230h-117zM586 1071l189 363h463l-414 -363h-238z" />
<glyph unicode="&#xfb;" horiz-adv-x="1622" d="M47 665v305h620v-462q0 -117 21.5 -157.5t90.5 -40.5q84 0 156 45v310h-133v305h636v-665h117v-305h-620v123q-200 -141 -407 -141q-149 0 -256.5 95t-107.5 358v230h-117zM354 1071l207 363h483l204 -363h-278l-171 140l-160 -140h-285z" />
<glyph unicode="&#xfc;" horiz-adv-x="1622" d="M47 665v305h620v-462q0 -117 21.5 -157.5t90.5 -40.5q84 0 156 45v310h-133v305h636v-665h117v-305h-620v123q-200 -141 -407 -141q-149 0 -256.5 95t-107.5 358v230h-117zM357 1290q0 76 54.5 130.5t131.5 54.5q75 0 130 -54t55 -131q0 -76 -53.5 -131t-131.5 -55 q-79 0 -132.5 55t-53.5 131zM873 1290q0 76 54.5 130.5t131.5 54.5q76 0 131 -54t55 -131t-55 -131.5t-131 -54.5q-78 0 -132 55t-54 131z" />
<glyph unicode="&#xfd;" horiz-adv-x="1343" d="M20 665v305h661v-305h-107l169 -381l156 381h-94v305h501v-305h-97l-530 -1110h-424v295h163l49 99l-372 716h-75zM505 1071l189 363h463l-414 -363h-238z" />
<glyph unicode="&#xfe;" horiz-adv-x="1642" d="M73 -140h119v1226h-117v305h620v-486q160 83 329 83q216 0 371 -140q154 -141 154 -369q0 -230 -151 -363q-152 -134 -395 -134q-180 0 -308 80v-202h128v-305h-750v305zM692 481q0 -105 48 -158q47 -54 119 -54q171 0 171 218q0 213 -164 213q-75 0 -124 -52 q-50 -53 -50 -167z" />
<glyph unicode="&#xff;" horiz-adv-x="1343" d="M20 665v305h661v-305h-107l169 -381l156 381h-94v305h501v-305h-97l-530 -1110h-424v295h163l49 99l-372 716h-75zM219 1290q0 76 54.5 130.5t131.5 54.5t131.5 -54.5t54.5 -130.5t-53.5 -131t-132.5 -55q-78 0 -132 55t-54 131zM736 1290q0 76 54.5 130.5t130.5 54.5 q78 0 132 -54.5t54 -130.5q0 -75 -53 -130.5t-133 -55.5q-78 0 -131.5 55t-53.5 131z" />
<glyph unicode="&#x152;" horiz-adv-x="2367" d="M104 698q0 178 71 325q70 145 192 232q120 85 257 111q134 25 336 25h1291v-445h-367v112h-320v-214h277v-283h-277v-228h320v113h367v-446h-1297q-288 0 -465 69q-178 68 -281 240q-104 173 -104 389zM661 680q0 -126 35 -205q35 -78 95 -110q59 -32 162 -32h73v725h-71 q-105 0 -167 -36q-63 -39 -94 -122q-33 -85 -33 -220z" />
<glyph unicode="&#x153;" horiz-adv-x="2284" d="M86 493q0 220 182 363q181 142 495 142q276 0 427 -96q158 96 394 96q137 0 247.5 -36.5t195.5 -109.5q170 -147 173 -417h-759v-28q0 -104 49 -156q50 -53 123 -53q93 0 152 110l411 -55q-43 -110 -188 -196q-145 -85 -373 -85q-257 0 -425 93q-145 -93 -439 -93 q-328 0 -497 155q-168 155 -168 366zM595 485q0 -112 47 -171t128 -59q170 0 170 234q0 107 -46 166q-46 60 -122 60q-78 0 -127 -58q-50 -59 -50 -172zM1440 561h287q0 102 -39 159q-41 56 -104 56q-133 0 -144 -215z" />
<glyph unicode="&#x178;" horiz-adv-x="1493" d="M36 1058v333h727v-333h-83l148 -284l179 284h-85v333h535v-333h-87l-350 -504v-221h110v-333h-760v333h112v221l-351 504h-95zM281 1664q0 76 54 130.5t132 54.5q75 0 130 -54t55 -131q0 -76 -53.5 -131t-131.5 -55q-79 0 -132.5 55t-53.5 131zM841 1664q0 76 54.5 130.5 t131.5 54.5q78 0 132 -54.5t54 -130.5q0 -75 -53.5 -130.5t-132.5 -55.5q-78 0 -132 55t-54 131z" />
<glyph unicode="&#x2c6;" horiz-adv-x="682" d="M-106 1071l207 363h484l203 -363h-278l-171 140l-160 -140h-285z" />
<glyph unicode="&#x2dc;" horiz-adv-x="682" d="M-100 1072q13 170 90 261q76 91 184 91q76 0 196 -55q73 -32 107 -32q65 0 84 90h222q-7 -160 -81 -258q-75 -98 -197 -98q-80 0 -182 51q-78 39 -110 39q-73 0 -90 -89h-223z" />
<glyph unicode="&#x2000;" horiz-adv-x="924" />
<glyph unicode="&#x2001;" horiz-adv-x="1849" />
<glyph unicode="&#x2002;" horiz-adv-x="924" />
<glyph unicode="&#x2003;" horiz-adv-x="1849" />
<glyph unicode="&#x2004;" horiz-adv-x="616" />
<glyph unicode="&#x2005;" horiz-adv-x="462" />
<glyph unicode="&#x2006;" horiz-adv-x="308" />
<glyph unicode="&#x2007;" horiz-adv-x="308" />
<glyph unicode="&#x2008;" horiz-adv-x="231" />
<glyph unicode="&#x2009;" horiz-adv-x="369" />
<glyph unicode="&#x200a;" horiz-adv-x="102" />
<glyph unicode="&#x2010;" horiz-adv-x="918" d="M102 269v431h714v-431h-714z" />
<glyph unicode="&#x2011;" horiz-adv-x="918" d="M102 269v431h714v-431h-714z" />
<glyph unicode="&#x2012;" horiz-adv-x="918" d="M102 269v431h714v-431h-714z" />
<glyph unicode="&#x2013;" horiz-adv-x="1024" d="M-12 290v388h1048v-388h-1048z" />
<glyph unicode="&#x2014;" horiz-adv-x="2048" d="M-12 290v388h2072v-388h-2072z" />
<glyph unicode="&#x2018;" horiz-adv-x="811" d="M156 623v311q0 169 12 230q12 62 70 123q58 59 141 82q81 22 276 22v-196q-81 0 -122 -23q-42 -25 -52 -57q-11 -32 -13 -127h187v-365h-499z" />
<glyph unicode="&#x2019;" horiz-adv-x="811" d="M156 623v196q80 0 122 24q42 25 52 57q11 33 12 127h-186v364h499v-311q0 -167 -12 -229q-12 -63 -70 -122q-57 -60 -141 -83t-276 -23z" />
<glyph unicode="&#x201a;" horiz-adv-x="811" d="M156 0v364h499v-311q0 -168 -12 -229q-12 -63 -70 -122q-57 -60 -141 -83q-81 -22 -276 -22v195q80 0 122 24q42 25 52 57q11 33 12 127h-186z" />
<glyph unicode="&#x201c;" horiz-adv-x="1473" d="M149 623v311q0 169 12 230q12 62 70 123q58 59 141 82q81 22 276 22v-196q-81 0 -122 -23q-42 -25 -52 -57q-11 -32 -13 -127h187v-365h-499zM825 623v311q0 169 12 230q12 62 70 123q58 59 141 82q81 22 275 22v-196q-80 0 -121 -23q-43 -24 -53 -57q-11 -33 -12 -127 h186v-365h-498z" />
<glyph unicode="&#x201d;" horiz-adv-x="1473" d="M149 623v196q80 0 122 24q42 25 52 57q11 33 12 127h-186v364h499v-311q0 -167 -12 -229q-12 -63 -70 -122q-57 -60 -141 -83t-276 -23zM825 623v196q81 0 121 24q41 24 53 57q11 33 12 127h-186v364h498v-311q0 -167 -12 -229q-12 -63 -70 -122q-58 -61 -140 -83 q-84 -23 -276 -23z" />
<glyph unicode="&#x201e;" horiz-adv-x="1473" d="M149 0v364h499v-311q0 -168 -12 -229q-12 -63 -70 -122q-57 -60 -141 -83q-81 -22 -276 -22v195q80 0 122 24q42 25 52 57q11 33 12 127h-186zM825 0v364h498v-311q0 -168 -12 -229q-12 -63 -70 -122q-58 -61 -140 -83q-81 -22 -276 -22v195q81 0 121 24q41 24 53 57 q11 33 12 127h-186z" />
<glyph unicode="&#x2022;" horiz-adv-x="1024" d="M202 695q0 130 92 220t218 90q123 0 217 -87t94 -224q0 -125 -90 -217t-222 -92q-126 0 -217 91q-92 92 -92 219z" />
<glyph unicode="&#x2026;" horiz-adv-x="2048" d="M92 0v364h499v-364h-499zM775 0v364h498v-364h-498zM1458 0v364h498v-364h-498z" />
<glyph unicode="&#x202f;" horiz-adv-x="369" />
<glyph unicode="&#x2039;" horiz-adv-x="831" d="M76 483l227 487h453l-220 -487l220 -483h-453z" />
<glyph unicode="&#x203a;" horiz-adv-x="831" d="M76 0l221 487l-221 483h453l227 -483l-227 -487h-453z" />
<glyph unicode="&#x205f;" horiz-adv-x="462" />
<glyph unicode="&#x2122;" horiz-adv-x="1942" d="M24 1197v194h801v-194h-285v-621h-235v621h-281zM918 576v815h357l113 -445l119 445h346v-815h-221v576l-153 -576h-185l-151 576v-576h-225z" />
<glyph unicode="&#xe000;" horiz-adv-x="970" d="M0 0v970h970v-970h-970z" />
</font>
</defs>
</svg>
